<mxfile host="Electron" modified="2024-06-02T20:49:08.094Z" agent="Mozilla/5.0 (Windows NT 10.0; Win64; x64) AppleWebKit/537.36 (KHTML, like Gecko) draw.io/22.1.2 Chrome/114.0.5735.289 Electron/25.9.4 Safari/537.36" etag="zCqk8PzwifTbNJe3F5bx" version="22.1.2" type="device">
  <diagram name="Página-1" id="vu2JanzpqaMk2_4WwivJ">
    <mxGraphModel dx="864" dy="1725" grid="1" gridSize="10" guides="1" tooltips="1" connect="1" arrows="1" fold="1" page="1" pageScale="1" pageWidth="827" pageHeight="1169" math="0" shadow="0">
      <root>
        <mxCell id="0" />
        <mxCell id="1" parent="0" />
        <mxCell id="VSfotJXESWepf04auhwD-29" style="edgeStyle=orthogonalEdgeStyle;rounded=0;orthogonalLoop=1;jettySize=auto;html=1;exitX=0.5;exitY=1;exitDx=0;exitDy=0;entryX=0.5;entryY=0;entryDx=0;entryDy=0;" edge="1" parent="1" source="VSfotJXESWepf04auhwD-3" target="VSfotJXESWepf04auhwD-19">
          <mxGeometry relative="1" as="geometry" />
        </mxCell>
        <mxCell id="VSfotJXESWepf04auhwD-3" value="Usuário" style="whiteSpace=wrap;html=1;" vertex="1" parent="1">
          <mxGeometry x="200" y="80" width="120" height="60" as="geometry" />
        </mxCell>
        <mxCell id="VSfotJXESWepf04auhwD-7" value="Id&lt;br&gt;nome&lt;br&gt;password&lt;br&gt;status&lt;br&gt;perfil" style="text;html=1;align=center;verticalAlign=middle;resizable=0;points=[];autosize=1;strokeColor=none;fillColor=none;" vertex="1" parent="1">
          <mxGeometry x="40" width="80" height="90" as="geometry" />
        </mxCell>
        <mxCell id="VSfotJXESWepf04auhwD-35" style="edgeStyle=orthogonalEdgeStyle;rounded=0;orthogonalLoop=1;jettySize=auto;html=1;exitX=1;exitY=0.5;exitDx=0;exitDy=0;" edge="1" parent="1" source="VSfotJXESWepf04auhwD-19" target="VSfotJXESWepf04auhwD-34">
          <mxGeometry relative="1" as="geometry" />
        </mxCell>
        <mxCell id="VSfotJXESWepf04auhwD-19" value="Id do Usário&lt;br&gt;Status&lt;br&gt;Perfil&lt;br&gt;" style="whiteSpace=wrap;html=1;" vertex="1" parent="1">
          <mxGeometry x="320" y="230" width="170" height="90" as="geometry" />
        </mxCell>
        <mxCell id="VSfotJXESWepf04auhwD-30" style="edgeStyle=orthogonalEdgeStyle;rounded=0;orthogonalLoop=1;jettySize=auto;html=1;exitX=0.5;exitY=1;exitDx=0;exitDy=0;entryX=0.5;entryY=0;entryDx=0;entryDy=0;" edge="1" parent="1" source="VSfotJXESWepf04auhwD-21" target="VSfotJXESWepf04auhwD-19">
          <mxGeometry relative="1" as="geometry" />
        </mxCell>
        <mxCell id="VSfotJXESWepf04auhwD-21" value="Perfil" style="whiteSpace=wrap;html=1;" vertex="1" parent="1">
          <mxGeometry x="460" y="80" width="120" height="60" as="geometry" />
        </mxCell>
        <mxCell id="VSfotJXESWepf04auhwD-26" style="edgeStyle=orthogonalEdgeStyle;rounded=0;orthogonalLoop=1;jettySize=auto;html=1;exitX=0;exitY=0.5;exitDx=0;exitDy=0;entryX=0.513;entryY=1;entryDx=0;entryDy=0;entryPerimeter=0;" edge="1" parent="1" source="VSfotJXESWepf04auhwD-3" target="VSfotJXESWepf04auhwD-7">
          <mxGeometry relative="1" as="geometry" />
        </mxCell>
        <mxCell id="VSfotJXESWepf04auhwD-27" value="id_status&lt;br&gt;self-service (visualizar)&lt;br style=&quot;&quot;&gt;&lt;span style=&quot;&quot;&gt;super-user (tratativas)&lt;/span&gt;&lt;br style=&quot;&quot;&gt;&lt;span style=&quot;&quot;&gt;admin (gerenciar)&lt;/span&gt;" style="text;html=1;align=center;verticalAlign=middle;resizable=0;points=[];autosize=1;strokeColor=none;fillColor=none;" vertex="1" parent="1">
          <mxGeometry x="610" y="-20" width="150" height="70" as="geometry" />
        </mxCell>
        <mxCell id="VSfotJXESWepf04auhwD-31" style="edgeStyle=orthogonalEdgeStyle;rounded=0;orthogonalLoop=1;jettySize=auto;html=1;exitX=1;exitY=0.5;exitDx=0;exitDy=0;entryX=0.527;entryY=1.043;entryDx=0;entryDy=0;entryPerimeter=0;" edge="1" parent="1" source="VSfotJXESWepf04auhwD-21" target="VSfotJXESWepf04auhwD-27">
          <mxGeometry relative="1" as="geometry" />
        </mxCell>
        <mxCell id="VSfotJXESWepf04auhwD-34" value="Possibilidade de identificar o usuário, o status (on/off) ou perfil de administração&lt;br&gt;" style="ellipse;shape=cloud;whiteSpace=wrap;html=1;" vertex="1" parent="1">
          <mxGeometry x="617" y="207.5" width="210" height="135" as="geometry" />
        </mxCell>
      </root>
    </mxGraphModel>
  </diagram>
</mxfile>
